<?xml version="1.0" encoding="UTF-8" standalone="no"?>
<svg
   xmlns:dc="http://purl.org/dc/elements/1.1/"
   xmlns:cc="http://creativecommons.org/ns#"
   xmlns:rdf="http://www.w3.org/1999/02/22-rdf-syntax-ns#"
   xmlns:svg="http://www.w3.org/2000/svg"
   xmlns="http://www.w3.org/2000/svg"
   xmlns:sodipodi="http://sodipodi.sourceforge.net/DTD/sodipodi-0.dtd"
   xmlns:inkscape="http://www.inkscape.org/namespaces/inkscape"
   sodipodi:docname="twinwave_light.svg"
   inkscape:version="1.0 (4035a4f, 2020-05-01)"
   id="svg345"
   version="1.1"
   viewBox="0 0 551.28925 95.810944"
   height="95.810944mm"
   width="551.28925mm">
  <defs
     id="defs339">
    <clipPath
       id="clipPath254"
       clipPathUnits="userSpaceOnUse">
      <path
         id="path252"
         d="m 1354.4,1493.28 h 82.37 v -88.19 h -82.37 z" />
    </clipPath>
  </defs>
  <sodipodi:namedview
     inkscape:window-maximized="0"
     inkscape:window-y="25"
     inkscape:window-x="0"
     inkscape:window-height="943"
     inkscape:window-width="1252"
     showgrid="false"
     inkscape:document-rotation="0"
     inkscape:current-layer="layer1"
     inkscape:document-units="mm"
     inkscape:cy="-130.3685"
     inkscape:cx="733.23505"
     inkscape:zoom="0.35"
     inkscape:pageshadow="2"
     inkscape:pageopacity="0.0"
     borderopacity="1.0"
     bordercolor="#666666"
     pagecolor="#ffffff"
     id="base" />
  <metadata
     id="metadata342">
    <rdf:RDF>
      <cc:Work
         rdf:about="">
        <dc:format>image/svg+xml</dc:format>
        <dc:type
           rdf:resource="http://purl.org/dc/dcmitype/StillImage" />
        <dc:title></dc:title>
      </cc:Work>
    </rdf:RDF>
  </metadata>
  <g
     transform="translate(88.16844,-182.66)"
     id="layer1"
     inkscape:groupmode="layer"
     inkscape:label="Layer 1">
    <g
       transform="matrix(0.35277777,0,0,-0.35277777,-74.931865,274.21574)"
       id="g214">
      <path
         id="path216"
         style="fill:#000000;fill-opacity:1;fill-rule:nonzero;stroke:none"
         d="m 0,0 c -6.854,7.738 -10.272,17.266 -10.272,28.591 v 142.495 h -27.249 v 13.845 h 27.249 v 54.053 H 7.595 V 184.931 H 33.501 V 171.086 H 7.595 V 28.591 c 0,-7.452 1.933,-13.852 5.805,-19.214 3.573,-5.354 8.039,-8.038 13.401,-8.038 5.655,0 10.276,1.045 13.848,3.128 V -8.49 C 34.095,-10.866 29.035,-12.062 25.463,-12.062 15.634,-12.062 7.148,-8.038 0,0" />
    </g>
    <g
       transform="matrix(0.35277777,0,0,-0.35277777,-47.770235,208.97635)"
       id="g218">
      <path
         id="path220"
         style="fill:#000000;fill-opacity:1;fill-rule:nonzero;stroke:none"
         d="M 0,0 H 16.977 L 71.474,-166.619 115.694,0 h 20.101 L 180.016,-163.04 234.066,0 H 251.49 L 188.506,-190.292 H 171.53 L 125.523,-25.462 79.96,-190.292 H 62.983 Z" />
    </g>
    <path
       id="path222"
       style="fill:#000000;fill-opacity:1;fill-rule:nonzero;stroke:none;stroke-width:0.352777"
       d="m 62.75377,208.97617 h 6.30308 v 67.13078 h -6.30308 z m 0,-26.31617 h 6.30308 v 9.61108 h -6.30308 z" />
    <g
       transform="matrix(0.35277777,0,0,-0.35277777,98.74176,276.10712)"
       id="g224">
      <path
         id="path226"
         style="fill:#000000;fill-opacity:1;fill-rule:nonzero;stroke:none"
         d="m 0,0 v 190.292 h 17.868 v -32.163 c 5.361,11.318 13.547,20.251 24.567,26.801 11.017,6.851 23.229,10.272 36.63,10.272 18.762,0 34.689,-6.106 47.797,-18.31 13.4,-12.506 20.1,-27.404 20.1,-44.669 V 0 h -17.867 v 132.223 c 0,13.1 -4.914,24.267 -14.739,33.502 -9.829,9.226 -21.598,13.843 -35.291,13.843 -14.894,0 -28.14,-5.06 -39.754,-15.182 -11.615,-10.43 -18.763,-23.38 -21.443,-38.863 V 0 Z" />
    </g>
    <g
       transform="matrix(0.35277777,0,0,-0.35277777,168.59797,208.97635)"
       id="g228">
      <path
         id="path230"
         style="fill:#000000;fill-opacity:1;fill-rule:nonzero;stroke:none"
         d="M 0,0 H 16.977 L 71.474,-166.619 115.694,0 h 20.101 L 180.016,-163.04 234.066,0 H 251.49 L 188.506,-190.292 H 171.53 L 125.523,-25.462 79.96,-190.292 H 62.983 Z" />
    </g>
    <g
       transform="matrix(0.35277777,0,0,-0.35277777,357.34782,276.10712)"
       id="g232">
      <path
         id="path234"
         style="fill:#000000;fill-opacity:1;fill-rule:nonzero;stroke:none"
         d="m 0,0 -71.026,190.292 h 16.529 L 10.272,20.552 71.47,190.292 H 88.446 L 18.762,0 Z" />
    </g>
    <g
       transform="matrix(0.35277777,0,0,-0.35277777,456.81774,236.55294)"
       id="g236">
      <path
         id="path238"
         style="fill:#000000;fill-opacity:1;fill-rule:nonzero;stroke:none"
         d="m 0,0 v 6.701 c -1.497,17.566 -8.641,32.455 -21.439,44.668 -13.108,11.903 -28.298,17.867 -45.564,17.867 -17.273,0 -32.321,-6.106 -45.12,-18.311 C -125.23,38.412 -132.524,23.071 -134.009,4.911 V 0 Z m -128.652,-91.127 c -15.487,18.763 -23.229,43.473 -23.229,74.155 0,30.666 7.742,55.384 23.229,74.146 15.484,18.462 36.028,27.696 61.649,27.696 25.605,0 46.149,-8.49 61.641,-25.462 C 10.122,42.435 17.867,19.8 17.867,-8.49 v -8.482 h -151.876 c 0,-25.915 6.102,-46.609 18.314,-62.092 12.205,-15.492 28.433,-23.23 48.692,-23.23 15.183,0 28.876,4.023 41.097,12.063 12.505,8.332 21.138,19.206 25.906,32.606 h 17.867 c -2.978,-17.574 -12.506,-32.163 -28.591,-43.773 -16.077,-11.62 -34.839,-17.424 -56.279,-17.424 -25.621,0 -46.165,9.226 -61.649,27.695" />
    </g>
    <g
       transform="matrix(0.35277777,0,0,-0.35277777,314.93681,276.66176)"
       id="g240">
      <path
         id="path242"
         style="fill:#0095c0;fill-opacity:1;fill-rule:nonzero;stroke:none"
         d="M 0,0 H 51.601 L -44.286,245.98 H -76.25 l -46.768,-119.105 c 23.948,7.565 44.497,7.914 51.024,7.649 22.846,-0.928 38.995,-6.961 45.691,-13.691 3.788,-4.583 5.572,-9.066 2.954,-10.674 -2.821,-1.731 -7.091,-0.454 -13.983,-1.392 -18.728,-0.875 -33.788,-15.714 -39.759,-31.501 20.994,10.574 42.075,11.127 47.545,10.904 14.671,-0.596 25.041,-4.471 29.341,-8.791 2.433,-2.943 3.578,-5.822 1.897,-6.855 -1.812,-1.112 -4.553,-0.292 -8.979,-0.893 -15.635,-0.732 -27.33,-16.613 -27.33,-29.291 0,-9.893 3.248,-19.92 12.141,-30.398 C -16.774,5.224 -8.445,1.83 0.392,0.022 Z" />
    </g>
    <g
       transform="matrix(0.35277777,0,0,-0.35277777,302.28023,276.65385)"
       id="g244">
      <path
         id="path246"
         style="fill:#0095c0;fill-opacity:1;fill-rule:nonzero;stroke:none"
         d="M 0,0 H 36.269 C 27.432,1.808 19.103,5.201 13.401,11.92 4.508,22.397 1.26,32.425 1.26,42.317 c 0,12.678 11.695,28.56 27.33,29.291 4.426,0.602 7.167,-0.218 8.979,0.894 1.681,1.032 0.535,3.911 -1.897,6.854 -4.3,4.321 -14.671,8.196 -29.341,8.791 -5.47,0.223 -26.551,-0.33 -47.545,-10.904 -1.791,-4.736 -2.8,-9.555 -2.8,-14.111 0,-11.297 2.739,-22.71 9.652,-34.429 2.657,-4.184 5.827,-8.451 9.574,-12.866 C -18.279,8.168 -9.588,3.221 0,0" />
    </g>
    <g
       transform="matrix(0.35277777,0,0,-0.35277777,-191.04761,772.35484)"
       id="g248">
      <g
         id="g250" />
      <g
         id="g262">
        <g
           style="opacity:0.5"
           id="g260"
           clip-path="url(#clipPath254)">
          <g
             id="g258"
             transform="translate(1398.4097,1405.0938)">
            <path
               id="path256"
               style="fill:#ffffff;fill-opacity:1;fill-rule:nonzero;stroke:none"
               d="M 0,0 H 36.269 C 27.432,1.809 19.103,5.201 13.401,11.92 4.508,22.398 1.26,32.426 1.26,42.317 c 0,12.679 11.695,28.561 27.33,29.291 4.426,0.602 7.167,-0.217 8.979,0.895 1.681,1.031 0.535,3.91 -1.897,6.853 -4.3,4.322 -14.671,8.197 -29.341,8.792 -5.47,0.222 -26.551,-0.331 -47.545,-10.904 -1.791,-4.736 -2.8,-9.556 -2.8,-14.111 0,-11.298 2.739,-22.711 9.652,-34.429 2.657,-4.185 5.827,-8.452 9.574,-12.867 C -18.279,8.169 -9.588,3.222 0,0" />
          </g>
        </g>
      </g>
    </g>
  </g>
</svg>
