<?xml version="1.0" encoding="UTF-8" standalone="no"?>
<svg
   xmlns:dc="http://purl.org/dc/elements/1.1/"
   xmlns:cc="http://creativecommons.org/ns#"
   xmlns:rdf="http://www.w3.org/1999/02/22-rdf-syntax-ns#"
   xmlns:svg="http://www.w3.org/2000/svg"
   xmlns="http://www.w3.org/2000/svg"
   xmlns:sodipodi="http://sodipodi.sourceforge.net/DTD/sodipodi-0.dtd"
   xmlns:inkscape="http://www.inkscape.org/namespaces/inkscape"
   sodipodi:docname="twinwave_dark.svg"
   inkscape:version="1.0 (4035a4f, 2020-05-01)"
   id="svg771"
   version="1.1"
   viewBox="0 0 551.28906 95.810959"
   height="95.810959mm"
   width="551.28906mm">
  <defs
     id="defs765">
    <clipPath
       id="clipPath582"
       clipPathUnits="userSpaceOnUse">
      <path
         id="path580"
         d="m 3977.4,702.276 h 82.37 v -88.182 h -82.37 z" />
    </clipPath>
  </defs>
  <sodipodi:namedview
     inkscape:window-maximized="0"
     inkscape:window-y="25"
     inkscape:window-x="0"
     inkscape:window-height="943"
     inkscape:window-width="1252"
     showgrid="false"
     inkscape:document-rotation="0"
     inkscape:current-layer="layer1"
     inkscape:document-units="mm"
     inkscape:cy="181.06007"
     inkscape:cx="1041.8061"
     inkscape:zoom="0.35"
     inkscape:pageshadow="2"
     inkscape:pageopacity="0.0"
     borderopacity="1.0"
     bordercolor="#666666"
     pagecolor="#ffffff"
     id="base" />
  <metadata
     id="metadata768">
    <rdf:RDF>
      <cc:Work
         rdf:about="">
        <dc:format>image/svg+xml</dc:format>
        <dc:type
           rdf:resource="http://purl.org/dc/dcmitype/StillImage" />
        <dc:title></dc:title>
      </cc:Work>
    </rdf:RDF>
  </metadata>
  <g
     transform="translate(169.81119,-100.26119)"
     id="layer1"
     inkscape:groupmode="layer"
     inkscape:label="Layer 1">
    <path
       id="path544"
       style="fill:#ffffff;fill-opacity:1;fill-rule:nonzero;stroke:none;stroke-width:0.352777"
       d="m -156.57462,191.81694 c -2.41829,-2.72979 -3.62373,-6.09106 -3.62373,-10.08627 v -50.26942 h -9.61284 v -4.88385 h 9.61284 v -19.0687 h 6.30308 v 19.0687 h 9.13906 v 4.88385 h -9.13906 v 50.26942 c 0,2.6289 0.68157,4.88668 2.04788,6.77828 1.26012,1.88877 2.83562,2.83562 4.72757,2.83562 1.99461,0 3.62514,-0.36865 4.88491,-1.10349 v 4.57094 c -2.31175,0.8382 -4.09716,1.26013 -5.35728,1.26013 -3.4671,0 -6.46112,-1.41958 -8.98243,-4.25521" />
    <g
       transform="matrix(0.35277777,0,0,-0.35277777,-129.41318,126.57752)"
       id="g546">
      <path
         id="path548"
         style="fill:#ffffff;fill-opacity:1;fill-rule:nonzero;stroke:none"
         d="M 0,0 H 16.977 L 71.474,-166.619 115.694,0 h 20.101 L 180.017,-163.04 234.065,0 h 17.424 L 188.507,-190.292 H 171.53 L 125.523,-25.463 79.96,-190.292 H 62.983 Z" />
    </g>
    <path
       id="path550"
       style="fill:#ffffff;fill-opacity:1;fill-rule:nonzero;stroke:none;stroke-width:0.352777"
       d="m -18.888812,126.57735 h 6.30308 v 67.13078 h -6.30308 z m 0,-26.31616 h 6.30308 v 9.61107 h -6.30308 z" />
    <g
       transform="matrix(0.35277777,0,0,-0.35277777,17.098838,193.70831)"
       id="g552">
      <path
         id="path554"
         style="fill:#ffffff;fill-opacity:1;fill-rule:nonzero;stroke:none"
         d="m 0,0 v 190.292 h 17.867 v -32.163 c 5.362,11.317 13.547,20.252 24.569,26.802 11.016,6.85 23.228,10.271 36.628,10.271 18.763,0 34.69,-6.106 47.797,-18.31 13.401,-12.506 20.101,-27.404 20.101,-44.669 V 0 h -17.867 v 132.223 c 0,13.099 -4.914,24.266 -14.739,33.502 -9.829,9.226 -21.597,13.843 -35.292,13.843 -14.893,0 -28.139,-5.06 -39.753,-15.182 C 27.696,153.955 20.548,141.006 17.867,125.522 V 0 Z" />
    </g>
    <g
       transform="matrix(0.35277777,0,0,-0.35277777,86.955028,126.57752)"
       id="g556">
      <path
         id="path558"
         style="fill:#ffffff;fill-opacity:1;fill-rule:nonzero;stroke:none"
         d="M 0,0 H 16.977 L 71.474,-166.619 115.694,0 h 20.101 L 180.017,-163.04 234.065,0 h 17.424 L 188.507,-190.292 H 171.53 L 125.523,-25.463 79.96,-190.292 H 62.983 Z" />
    </g>
    <g
       transform="matrix(0.35277777,0,0,-0.35277777,275.70489,193.70831)"
       id="g560">
      <path
         id="path562"
         style="fill:#ffffff;fill-opacity:1;fill-rule:nonzero;stroke:none"
         d="m 0,0 -71.025,190.292 h 16.528 L 10.272,20.552 71.47,190.292 H 88.446 L 18.763,0 Z" />
    </g>
    <g
       transform="matrix(0.35277777,0,0,-0.35277777,375.17478,154.15414)"
       id="g564">
      <path
         id="path566"
         style="fill:#ffffff;fill-opacity:1;fill-rule:nonzero;stroke:none"
         d="m 0,0 v 6.7 c -1.497,17.567 -8.641,32.456 -21.439,44.669 -13.108,11.903 -28.298,17.867 -45.564,17.867 -17.273,0 -32.321,-6.106 -45.12,-18.31 C -125.23,38.412 -132.524,23.071 -134.01,4.91 V 0 Z m -128.651,-91.127 c -15.488,18.763 -23.23,43.473 -23.23,74.154 0,30.666 7.742,55.385 23.23,74.147 15.483,18.462 36.027,27.696 61.648,27.696 25.606,0 46.149,-8.49 61.641,-25.463 C 10.121,42.436 17.867,19.8 17.867,-8.49 v -8.483 H -134.01 c 0,-25.914 6.103,-46.608 18.316,-62.091 12.204,-15.492 28.432,-23.23 48.691,-23.23 15.183,0 28.876,4.023 41.097,12.063 12.506,8.332 21.138,19.206 25.906,32.606 h 17.867 c -2.977,-17.574 -12.506,-32.163 -28.591,-43.773 -16.078,-11.62 -34.839,-17.424 -56.279,-17.424 -25.621,0 -46.165,9.226 -61.648,27.695" />
    </g>
    <g
       transform="matrix(0.35277777,0,0,-0.35277777,233.29372,194.26296)"
       id="g568">
      <path
         id="path570"
         style="fill:#0095c0;fill-opacity:1;fill-rule:nonzero;stroke:none"
         d="M 0,0 H 51.602 L -44.286,245.979 H -76.25 l -46.768,-119.104 c 23.949,7.564 44.497,7.914 51.025,7.649 22.846,-0.928 38.994,-6.961 45.69,-13.69 3.788,-4.584 5.573,-9.067 2.954,-10.675 -2.821,-1.731 -7.09,-0.455 -13.983,-1.391 -18.728,-0.876 -33.787,-15.715 -39.759,-31.502 20.994,10.574 42.076,11.127 47.545,10.904 14.671,-0.596 25.041,-4.471 29.342,-8.791 2.432,-2.943 3.578,-5.822 1.896,-6.855 -1.811,-1.112 -4.553,-0.292 -8.979,-0.893 -15.634,-0.732 -27.329,-16.613 -27.329,-29.291 0,-9.893 3.247,-19.92 12.14,-30.398 C -16.773,5.224 -8.444,1.83 0.393,0.022 Z" />
    </g>
    <g
       transform="matrix(0.35277777,0,0,-0.35277777,220.63713,194.25505)"
       id="g572">
      <path
         id="path574"
         style="fill:#0095c0;fill-opacity:1;fill-rule:nonzero;stroke:none"
         d="M 0,0 H 36.27 C 27.433,1.808 19.104,5.201 13.401,11.92 4.508,22.397 1.261,32.425 1.261,42.317 c 0,12.678 11.695,28.56 27.329,29.291 4.426,0.602 7.168,-0.218 8.979,0.894 1.682,1.032 0.535,3.911 -1.896,6.854 -4.301,4.321 -14.671,8.196 -29.342,8.791 -5.469,0.223 -26.551,-0.33 -47.545,-10.904 -1.791,-4.736 -2.8,-9.555 -2.8,-14.111 0,-11.297 2.739,-22.71 9.653,-34.429 2.656,-4.184 5.827,-8.451 9.574,-12.866 C -18.278,8.168 -9.588,3.221 0,0" />
    </g>
    <g
       transform="matrix(0.35277777,0,0,-0.35277777,-1198.0266,410.90883)"
       id="g576">
      <g
         id="g578" />
      <g
         id="g590">
        <g
           style="opacity:0.300003"
           id="g588"
           clip-path="url(#clipPath582)">
          <g
             id="g586"
             transform="translate(4021.4092,614.0937)">
            <path
               id="path584"
               style="fill:#000000;fill-opacity:1;fill-rule:nonzero;stroke:none"
               d="M 0,0 H 36.27 C 27.433,1.809 19.104,5.201 13.401,11.92 4.508,22.398 1.261,32.426 1.261,42.317 c 0,12.679 11.695,28.561 27.329,29.291 4.426,0.602 7.168,-0.217 8.979,0.895 1.682,1.031 0.535,3.91 -1.896,6.853 -4.301,4.322 -14.671,8.197 -29.342,8.792 -5.469,0.222 -26.551,-0.331 -47.545,-10.904 -1.791,-4.736 -2.8,-9.556 -2.8,-14.111 0,-11.298 2.739,-22.711 9.653,-34.429 2.656,-4.185 5.827,-8.452 9.574,-12.867 C -18.278,8.169 -9.588,3.222 0,0" />
          </g>
        </g>
      </g>
    </g>
  </g>
</svg>
